<svg width="177" height="194" viewBox="0 0 177 194" fill="none" xmlns="http://www.w3.org/2000/svg">
<g id="fa-solid:user-tie" clip-path="url(#clip0_11_81)">
<path id="Vector" d="M88.5 97C116.433 97 139.071 75.2887 139.071 48.5C139.071 21.7113 116.433 0 88.5 0C60.5672 0 37.9286 21.7113 37.9286 48.5C37.9286 75.2887 60.5672 97 88.5 97ZM126.35 109.352L107.464 181.875L94.8214 130.344L107.464 109.125H69.5357L82.1786 130.344L69.5357 181.875L50.6504 109.352C22.4806 110.641 0 132.731 0 160.05V175.812C0 185.854 8.49442 194 18.9643 194H158.036C168.506 194 177 185.854 177 175.812V160.05C177 132.731 154.519 110.641 126.35 109.352Z" fill="black"/>
</g>
<defs>
<clipPath id="clip0_11_81">
<rect width="177" height="194" fill="white"/>
</clipPath>
</defs>
</svg>
